<mxfile host="app.diagrams.net" modified="2024-04-17T07:42:01.756Z" agent="Mozilla/5.0 (Windows NT 10.0; Win64; x64) AppleWebKit/537.36 (KHTML, like Gecko) Chrome/123.0.0.0 Safari/537.36" etag="i9t3w9wlQWWEy_73I4p2" version="24.2.5" type="github">
  <diagram name="Page-1" id="ZP47xsRSzhiv-v-SpaPU">
    <mxGraphModel dx="1050" dy="522" grid="1" gridSize="10" guides="1" tooltips="1" connect="1" arrows="1" fold="1" page="1" pageScale="1" pageWidth="850" pageHeight="1100" math="0" shadow="0">
      <root>
        <mxCell id="0" />
        <mxCell id="1" parent="0" />
        <mxCell id="pe2orTPTWaKk4DzKW6lW-1" value="" style="shape=umlFrame;whiteSpace=wrap;html=1;pointerEvents=0;hachureGap=4;fontFamily=Architects Daughter;fontSource=https%3A%2F%2Ffonts.googleapis.com%2Fcss%3Ffamily%3DArchitects%2BDaughter;strokeWidth=2;" vertex="1" parent="1">
          <mxGeometry x="140" y="60" width="530" height="680" as="geometry" />
        </mxCell>
        <mxCell id="pe2orTPTWaKk4DzKW6lW-2" value="&lt;font face=&quot;Verdana&quot;&gt;&lt;b&gt;SYSTEM&lt;/b&gt;&lt;/font&gt;" style="shape=umlActor;verticalLabelPosition=bottom;verticalAlign=top;html=1;hachureGap=4;fontFamily=Architects Daughter;fontSource=https%3A%2F%2Ffonts.googleapis.com%2Fcss%3Ffamily%3DArchitects%2BDaughter;strokeWidth=2;" vertex="1" parent="1">
          <mxGeometry x="30" y="280" width="50" height="70" as="geometry" />
        </mxCell>
        <mxCell id="pe2orTPTWaKk4DzKW6lW-9" value="&lt;font face=&quot;Verdana&quot;&gt;&lt;b&gt;USER&lt;/b&gt;&lt;/font&gt;" style="shape=umlActor;verticalLabelPosition=bottom;verticalAlign=top;html=1;hachureGap=4;fontFamily=Architects Daughter;fontSource=https%3A%2F%2Ffonts.googleapis.com%2Fcss%3Ffamily%3DArchitects%2BDaughter;strokeWidth=2;" vertex="1" parent="1">
          <mxGeometry x="40" y="530" width="50" height="70" as="geometry" />
        </mxCell>
        <mxCell id="pe2orTPTWaKk4DzKW6lW-10" value="&lt;font face=&quot;Verdana&quot;&gt;&lt;b&gt;ADMIN&lt;/b&gt;&lt;/font&gt;" style="shape=umlActor;verticalLabelPosition=bottom;verticalAlign=top;html=1;hachureGap=4;fontFamily=Architects Daughter;fontSource=https%3A%2F%2Ffonts.googleapis.com%2Fcss%3Ffamily%3DArchitects%2BDaughter;strokeWidth=2;" vertex="1" parent="1">
          <mxGeometry x="730" y="240" width="50" height="70" as="geometry" />
        </mxCell>
        <mxCell id="pe2orTPTWaKk4DzKW6lW-16" value="&lt;font face=&quot;Verdana&quot;&gt;&lt;b&gt;Remove record&lt;/b&gt;&lt;/font&gt;" style="ellipse;whiteSpace=wrap;html=1;hachureGap=4;fontFamily=Architects Daughter;fontSource=https%3A%2F%2Ffonts.googleapis.com%2Fcss%3Ffamily%3DArchitects%2BDaughter;strokeWidth=2;" vertex="1" parent="1">
          <mxGeometry x="560" y="120" width="90" height="60" as="geometry" />
        </mxCell>
        <mxCell id="pe2orTPTWaKk4DzKW6lW-17" value="&lt;font face=&quot;Verdana&quot;&gt;&lt;b&gt;Update record&lt;/b&gt;&lt;/font&gt;" style="ellipse;whiteSpace=wrap;html=1;hachureGap=4;fontFamily=Architects Daughter;fontSource=https%3A%2F%2Ffonts.googleapis.com%2Fcss%3Ffamily%3DArchitects%2BDaughter;strokeWidth=2;" vertex="1" parent="1">
          <mxGeometry x="445" y="70" width="90" height="60" as="geometry" />
        </mxCell>
        <mxCell id="pe2orTPTWaKk4DzKW6lW-18" value="&lt;font face=&quot;Verdana&quot;&gt;&lt;b&gt;Add record&lt;/b&gt;&lt;/font&gt;" style="ellipse;whiteSpace=wrap;html=1;hachureGap=4;fontFamily=Architects Daughter;fontSource=https%3A%2F%2Ffonts.googleapis.com%2Fcss%3Ffamily%3DArchitects%2BDaughter;strokeWidth=2;" vertex="1" parent="1">
          <mxGeometry x="330" y="90" width="90" height="60" as="geometry" />
        </mxCell>
        <mxCell id="pe2orTPTWaKk4DzKW6lW-19" value="&lt;font face=&quot;Verdana&quot;&gt;&lt;b&gt;Manage Data&lt;/b&gt;&lt;/font&gt;" style="ellipse;whiteSpace=wrap;html=1;hachureGap=4;fontFamily=Architects Daughter;fontSource=https%3A%2F%2Ffonts.googleapis.com%2Fcss%3Ffamily%3DArchitects%2BDaughter;strokeWidth=2;" vertex="1" parent="1">
          <mxGeometry x="450" y="190" width="100" height="60" as="geometry" />
        </mxCell>
        <mxCell id="pe2orTPTWaKk4DzKW6lW-20" value="&lt;font face=&quot;Verdana&quot;&gt;&lt;b&gt;Preprocessed Data&lt;/b&gt;&lt;/font&gt;" style="ellipse;whiteSpace=wrap;html=1;hachureGap=4;fontFamily=Architects Daughter;fontSource=https%3A%2F%2Ffonts.googleapis.com%2Fcss%3Ffamily%3DArchitects%2BDaughter;strokeWidth=2;" vertex="1" parent="1">
          <mxGeometry x="190" y="150" width="110" height="60" as="geometry" />
        </mxCell>
        <mxCell id="pe2orTPTWaKk4DzKW6lW-39" value="" style="edgeStyle=orthogonalEdgeStyle;rounded=0;hachureGap=4;orthogonalLoop=1;jettySize=auto;html=1;fontFamily=Architects Daughter;fontSource=https%3A%2F%2Ffonts.googleapis.com%2Fcss%3Ffamily%3DArchitects%2BDaughter;endArrow=none;endFill=0;strokeWidth=2;" edge="1" parent="1" source="pe2orTPTWaKk4DzKW6lW-21" target="pe2orTPTWaKk4DzKW6lW-22">
          <mxGeometry relative="1" as="geometry" />
        </mxCell>
        <mxCell id="pe2orTPTWaKk4DzKW6lW-21" value="&lt;font face=&quot;Verdana&quot;&gt;&lt;b&gt;Hydrid Classifier&lt;/b&gt;&lt;/font&gt;" style="ellipse;whiteSpace=wrap;html=1;hachureGap=4;fontFamily=Architects Daughter;fontSource=https%3A%2F%2Ffonts.googleapis.com%2Fcss%3Ffamily%3DArchitects%2BDaughter;strokeWidth=2;" vertex="1" parent="1">
          <mxGeometry x="180" y="270" width="105" height="50" as="geometry" />
        </mxCell>
        <mxCell id="pe2orTPTWaKk4DzKW6lW-22" value="&lt;font face=&quot;Verdana&quot;&gt;&lt;b&gt;Evaluate Model&lt;/b&gt;&lt;/font&gt;" style="ellipse;whiteSpace=wrap;html=1;hachureGap=4;fontFamily=Architects Daughter;fontSource=https%3A%2F%2Ffonts.googleapis.com%2Fcss%3Ffamily%3DArchitects%2BDaughter;strokeWidth=2;" vertex="1" parent="1">
          <mxGeometry x="335" y="330" width="110" height="50" as="geometry" />
        </mxCell>
        <mxCell id="pe2orTPTWaKk4DzKW6lW-23" value="&lt;font face=&quot;Verdana&quot;&gt;&lt;b&gt;Evaluate Accuracy&lt;/b&gt;&lt;/font&gt;" style="ellipse;whiteSpace=wrap;html=1;hachureGap=4;fontFamily=Architects Daughter;fontSource=https%3A%2F%2Ffonts.googleapis.com%2Fcss%3Ffamily%3DArchitects%2BDaughter;strokeWidth=2;" vertex="1" parent="1">
          <mxGeometry x="170" y="410" width="110" height="50" as="geometry" />
        </mxCell>
        <mxCell id="pe2orTPTWaKk4DzKW6lW-24" value="&lt;font face=&quot;Verdana&quot;&gt;&lt;b&gt;Review Result&lt;/b&gt;&lt;/font&gt;" style="ellipse;whiteSpace=wrap;html=1;hachureGap=4;fontFamily=Architects Daughter;fontSource=https%3A%2F%2Ffonts.googleapis.com%2Fcss%3Ffamily%3DArchitects%2BDaughter;strokeWidth=2;" vertex="1" parent="1">
          <mxGeometry x="420" y="410" width="100" height="60" as="geometry" />
        </mxCell>
        <mxCell id="pe2orTPTWaKk4DzKW6lW-25" value="&lt;font face=&quot;Verdana&quot;&gt;&lt;b&gt;Enter Location&lt;/b&gt;&lt;/font&gt;" style="ellipse;whiteSpace=wrap;html=1;hachureGap=4;fontFamily=Architects Daughter;fontSource=https%3A%2F%2Ffonts.googleapis.com%2Fcss%3Ffamily%3DArchitects%2BDaughter;strokeWidth=2;" vertex="1" parent="1">
          <mxGeometry x="340" y="480" width="100" height="60" as="geometry" />
        </mxCell>
        <mxCell id="pe2orTPTWaKk4DzKW6lW-26" value="&lt;font face=&quot;Verdana&quot;&gt;&lt;b&gt;Enter Time&lt;/b&gt;&lt;/font&gt;" style="ellipse;whiteSpace=wrap;html=1;hachureGap=4;fontFamily=Architects Daughter;fontSource=https%3A%2F%2Ffonts.googleapis.com%2Fcss%3Ffamily%3DArchitects%2BDaughter;strokeWidth=2;" vertex="1" parent="1">
          <mxGeometry x="380" y="550" width="90" height="60" as="geometry" />
        </mxCell>
        <mxCell id="pe2orTPTWaKk4DzKW6lW-28" value="&lt;font face=&quot;Verdana&quot;&gt;&lt;b&gt;Visualize Results&lt;/b&gt;&lt;/font&gt;" style="ellipse;whiteSpace=wrap;html=1;hachureGap=4;fontFamily=Architects Daughter;fontSource=https%3A%2F%2Ffonts.googleapis.com%2Fcss%3Ffamily%3DArchitects%2BDaughter;strokeWidth=2;" vertex="1" parent="1">
          <mxGeometry x="280" y="620" width="100" height="60" as="geometry" />
        </mxCell>
        <mxCell id="pe2orTPTWaKk4DzKW6lW-31" value="" style="endArrow=open;endSize=12;dashed=1;html=1;rounded=0;hachureGap=4;fontFamily=Architects Daughter;fontSource=https%3A%2F%2Ffonts.googleapis.com%2Fcss%3Ffamily%3DArchitects%2BDaughter;exitX=0;exitY=0;exitDx=0;exitDy=0;entryX=0.5;entryY=1;entryDx=0;entryDy=0;strokeWidth=2;" edge="1" parent="1" source="pe2orTPTWaKk4DzKW6lW-19" target="pe2orTPTWaKk4DzKW6lW-18">
          <mxGeometry width="160" relative="1" as="geometry">
            <mxPoint x="390" y="330" as="sourcePoint" />
            <mxPoint x="550" y="330" as="targetPoint" />
          </mxGeometry>
        </mxCell>
        <mxCell id="pe2orTPTWaKk4DzKW6lW-32" value="" style="endArrow=open;endSize=12;dashed=1;html=1;rounded=0;hachureGap=4;fontFamily=Architects Daughter;fontSource=https%3A%2F%2Ffonts.googleapis.com%2Fcss%3Ffamily%3DArchitects%2BDaughter;exitX=0.5;exitY=0;exitDx=0;exitDy=0;entryX=0.5;entryY=1;entryDx=0;entryDy=0;strokeWidth=2;" edge="1" parent="1" source="pe2orTPTWaKk4DzKW6lW-19" target="pe2orTPTWaKk4DzKW6lW-17">
          <mxGeometry width="160" relative="1" as="geometry">
            <mxPoint x="510" y="200" as="sourcePoint" />
            <mxPoint x="495" y="150" as="targetPoint" />
          </mxGeometry>
        </mxCell>
        <mxCell id="pe2orTPTWaKk4DzKW6lW-33" value="" style="endArrow=open;endSize=12;dashed=1;html=1;rounded=0;hachureGap=4;fontFamily=Architects Daughter;fontSource=https%3A%2F%2Ffonts.googleapis.com%2Fcss%3Ffamily%3DArchitects%2BDaughter;exitX=1;exitY=0;exitDx=0;exitDy=0;entryX=0;entryY=0.5;entryDx=0;entryDy=0;strokeWidth=2;" edge="1" parent="1" source="pe2orTPTWaKk4DzKW6lW-19" target="pe2orTPTWaKk4DzKW6lW-16">
          <mxGeometry width="160" relative="1" as="geometry">
            <mxPoint x="520" y="210" as="sourcePoint" />
            <mxPoint x="505" y="160" as="targetPoint" />
          </mxGeometry>
        </mxCell>
        <mxCell id="pe2orTPTWaKk4DzKW6lW-34" value="&lt;font face=&quot;Verdana&quot;&gt;&lt;b&gt;Extends&lt;/b&gt;&lt;/font&gt;" style="endArrow=block;endSize=16;endFill=0;html=1;rounded=0;hachureGap=4;fontFamily=Architects Daughter;fontSource=https%3A%2F%2Ffonts.googleapis.com%2Fcss%3Ffamily%3DArchitects%2BDaughter;exitX=0;exitY=0.5;exitDx=0;exitDy=0;entryX=1;entryY=0.5;entryDx=0;entryDy=0;strokeWidth=2;" edge="1" parent="1" source="pe2orTPTWaKk4DzKW6lW-19" target="pe2orTPTWaKk4DzKW6lW-20">
          <mxGeometry width="160" relative="1" as="geometry">
            <mxPoint x="250" y="330" as="sourcePoint" />
            <mxPoint x="410" y="330" as="targetPoint" />
          </mxGeometry>
        </mxCell>
        <mxCell id="pe2orTPTWaKk4DzKW6lW-35" value="&lt;font face=&quot;Verdana&quot;&gt;&lt;b&gt;Include&lt;/b&gt;&lt;/font&gt;" style="endArrow=open;endSize=12;dashed=1;html=1;rounded=0;hachureGap=4;fontFamily=Architects Daughter;fontSource=https%3A%2F%2Ffonts.googleapis.com%2Fcss%3Ffamily%3DArchitects%2BDaughter;exitX=0.5;exitY=1;exitDx=0;exitDy=0;strokeWidth=2;" edge="1" parent="1" source="pe2orTPTWaKk4DzKW6lW-20" target="pe2orTPTWaKk4DzKW6lW-21">
          <mxGeometry width="160" relative="1" as="geometry">
            <mxPoint x="250" y="430" as="sourcePoint" />
            <mxPoint x="410" y="430" as="targetPoint" />
          </mxGeometry>
        </mxCell>
        <mxCell id="pe2orTPTWaKk4DzKW6lW-46" value="" style="endArrow=open;endFill=1;endSize=12;html=1;rounded=0;hachureGap=4;fontFamily=Architects Daughter;fontSource=https%3A%2F%2Ffonts.googleapis.com%2Fcss%3Ffamily%3DArchitects%2BDaughter;entryX=0.022;entryY=0.633;entryDx=0;entryDy=0;entryPerimeter=0;strokeWidth=2;" edge="1" parent="1" target="pe2orTPTWaKk4DzKW6lW-25">
          <mxGeometry width="160" relative="1" as="geometry">
            <mxPoint x="100" y="560" as="sourcePoint" />
            <mxPoint x="440" y="730" as="targetPoint" />
          </mxGeometry>
        </mxCell>
        <mxCell id="pe2orTPTWaKk4DzKW6lW-47" value="" style="endArrow=open;endFill=1;endSize=12;html=1;rounded=0;hachureGap=4;fontFamily=Architects Daughter;fontSource=https%3A%2F%2Ffonts.googleapis.com%2Fcss%3Ffamily%3DArchitects%2BDaughter;entryX=0;entryY=0.5;entryDx=0;entryDy=0;strokeWidth=2;" edge="1" parent="1" target="pe2orTPTWaKk4DzKW6lW-26">
          <mxGeometry width="160" relative="1" as="geometry">
            <mxPoint x="100" y="570" as="sourcePoint" />
            <mxPoint x="307" y="528" as="targetPoint" />
          </mxGeometry>
        </mxCell>
        <mxCell id="pe2orTPTWaKk4DzKW6lW-48" value="" style="endArrow=open;endFill=1;endSize=12;html=1;rounded=0;hachureGap=4;fontFamily=Architects Daughter;fontSource=https%3A%2F%2Ffonts.googleapis.com%2Fcss%3Ffamily%3DArchitects%2BDaughter;entryX=0;entryY=0.5;entryDx=0;entryDy=0;strokeWidth=2;" edge="1" parent="1" target="pe2orTPTWaKk4DzKW6lW-28">
          <mxGeometry width="160" relative="1" as="geometry">
            <mxPoint x="100" y="580" as="sourcePoint" />
            <mxPoint x="317" y="538" as="targetPoint" />
          </mxGeometry>
        </mxCell>
        <mxCell id="pe2orTPTWaKk4DzKW6lW-49" value="" style="endArrow=open;endFill=1;endSize=12;html=1;rounded=0;hachureGap=4;fontFamily=Architects Daughter;fontSource=https%3A%2F%2Ffonts.googleapis.com%2Fcss%3Ffamily%3DArchitects%2BDaughter;entryX=0;entryY=0.5;entryDx=0;entryDy=0;strokeWidth=2;" edge="1" parent="1" target="pe2orTPTWaKk4DzKW6lW-20">
          <mxGeometry width="160" relative="1" as="geometry">
            <mxPoint x="80" y="290" as="sourcePoint" />
            <mxPoint x="327" y="548" as="targetPoint" />
          </mxGeometry>
        </mxCell>
        <mxCell id="pe2orTPTWaKk4DzKW6lW-50" value="" style="endArrow=open;endFill=1;endSize=12;html=1;rounded=0;hachureGap=4;fontFamily=Architects Daughter;fontSource=https%3A%2F%2Ffonts.googleapis.com%2Fcss%3Ffamily%3DArchitects%2BDaughter;entryX=0;entryY=0.5;entryDx=0;entryDy=0;strokeWidth=2;" edge="1" parent="1" target="pe2orTPTWaKk4DzKW6lW-22">
          <mxGeometry width="160" relative="1" as="geometry">
            <mxPoint x="80" y="320" as="sourcePoint" />
            <mxPoint x="337" y="558" as="targetPoint" />
          </mxGeometry>
        </mxCell>
        <mxCell id="pe2orTPTWaKk4DzKW6lW-51" value="" style="endArrow=open;endFill=1;endSize=12;html=1;rounded=0;hachureGap=4;fontFamily=Architects Daughter;fontSource=https%3A%2F%2Ffonts.googleapis.com%2Fcss%3Ffamily%3DArchitects%2BDaughter;entryX=0;entryY=0;entryDx=0;entryDy=0;strokeWidth=2;" edge="1" parent="1" source="pe2orTPTWaKk4DzKW6lW-2" target="pe2orTPTWaKk4DzKW6lW-23">
          <mxGeometry width="160" relative="1" as="geometry">
            <mxPoint x="115" y="615" as="sourcePoint" />
            <mxPoint x="347" y="568" as="targetPoint" />
          </mxGeometry>
        </mxCell>
        <mxCell id="pe2orTPTWaKk4DzKW6lW-53" value="" style="endArrow=none;endFill=0;endSize=12;html=1;rounded=0;hachureGap=4;fontFamily=Architects Daughter;fontSource=https%3A%2F%2Ffonts.googleapis.com%2Fcss%3Ffamily%3DArchitects%2BDaughter;entryX=0.084;entryY=0.773;entryDx=0;entryDy=0;strokeWidth=2;entryPerimeter=0;" edge="1" parent="1" target="pe2orTPTWaKk4DzKW6lW-24">
          <mxGeometry width="160" relative="1" as="geometry">
            <mxPoint x="100" y="530" as="sourcePoint" />
            <mxPoint x="307" y="528" as="targetPoint" />
          </mxGeometry>
        </mxCell>
        <mxCell id="pe2orTPTWaKk4DzKW6lW-54" value="" style="endArrow=none;endFill=0;endSize=12;html=1;rounded=0;hachureGap=4;fontFamily=Architects Daughter;fontSource=https%3A%2F%2Ffonts.googleapis.com%2Fcss%3Ffamily%3DArchitects%2BDaughter;entryX=0;entryY=0;entryDx=0;entryDy=0;strokeWidth=2;" edge="1" parent="1" target="pe2orTPTWaKk4DzKW6lW-24">
          <mxGeometry width="160" relative="1" as="geometry">
            <mxPoint x="90" y="330" as="sourcePoint" />
            <mxPoint x="317" y="538" as="targetPoint" />
          </mxGeometry>
        </mxCell>
        <mxCell id="pe2orTPTWaKk4DzKW6lW-55" value="" style="endArrow=open;endFill=1;endSize=12;html=1;rounded=0;hachureGap=4;fontFamily=Architects Daughter;fontSource=https%3A%2F%2Ffonts.googleapis.com%2Fcss%3Ffamily%3DArchitects%2BDaughter;entryX=1;entryY=0.5;entryDx=0;entryDy=0;strokeWidth=2;" edge="1" parent="1" target="pe2orTPTWaKk4DzKW6lW-19">
          <mxGeometry width="160" relative="1" as="geometry">
            <mxPoint x="720" y="280" as="sourcePoint" />
            <mxPoint x="588.5" y="280" as="targetPoint" />
          </mxGeometry>
        </mxCell>
      </root>
    </mxGraphModel>
  </diagram>
</mxfile>
